<svg width="500" height="500" viewBox="0 0 500 500" fill="none" xmlns="http://www.w3.org/2000/svg">
<mask id="mask0_8218_438" style="mask-type:luminance" maskUnits="userSpaceOnUse" x="165" y="152" width="54" height="78">
<path d="M165.333 152H218.667V229.333H165.333V152Z" fill="white"/>
</mask>
<g mask="url(#mask0_8218_438)">
<mask id="mask1_8218_438" style="mask-type:luminance" maskUnits="userSpaceOnUse" x="90" y="124" width="152" height="152">
<path d="M90.2188 201.109L167.297 124.036L241.542 198.281L164.469 275.359L90.2188 201.109Z" fill="white"/>
</mask>
<g mask="url(#mask1_8218_438)">
<mask id="mask2_8218_438" style="mask-type:luminance" maskUnits="userSpaceOnUse" x="90" y="124" width="152" height="152">
<path d="M90.2188 201.109L167.297 124.036L241.542 198.281L164.469 275.359L90.2188 201.109Z" fill="white"/>
</mask>
<g mask="url(#mask2_8218_438)">
<mask id="mask3_8218_438" style="mask-type:luminance" maskUnits="userSpaceOnUse" x="90" y="124" width="152" height="152">
<path d="M90.2188 201.109L167.297 124.036L241.542 198.281L164.469 275.359L90.2188 201.109Z" fill="white"/>
</mask>
<g mask="url(#mask3_8218_438)">
<path d="M216.964 196.25C213.292 170.109 169.516 152.646 169.516 152.646C169.516 152.646 174.604 176.021 168.547 190.031C164.5 199.391 159.344 229.359 195.073 228.469C195.453 228.458 195.849 228.443 196.25 228.411C200.542 214.99 204.786 185.057 172.328 156.036C172.328 156.036 213.448 184.943 198.37 228.177C207.969 226.745 220.25 219.599 216.964 196.25Z" fill="#80CC28"/>
</g>
</g>
</g>
</g>
<mask id="mask4_8218_438" style="mask-type:luminance" maskUnits="userSpaceOnUse" x="89" y="176" width="97" height="71">
<path d="M89.3333 176H185.333V246.667H89.3333V176Z" fill="white"/>
</mask>
<g mask="url(#mask4_8218_438)">
<mask id="mask5_8218_438" style="mask-type:luminance" maskUnits="userSpaceOnUse" x="90" y="124" width="152" height="152">
<path d="M90.2188 201.109L167.297 124.036L241.542 198.281L164.469 275.359L90.2188 201.109Z" fill="white"/>
</mask>
<g mask="url(#mask5_8218_438)">
<mask id="mask6_8218_438" style="mask-type:luminance" maskUnits="userSpaceOnUse" x="90" y="124" width="152" height="152">
<path d="M90.2188 201.109L167.297 124.036L241.542 198.281L164.469 275.359L90.2188 201.109Z" fill="white"/>
</mask>
<g mask="url(#mask6_8218_438)">
<mask id="mask7_8218_438" style="mask-type:luminance" maskUnits="userSpaceOnUse" x="90" y="124" width="152" height="152">
<path d="M90.2188 201.109L167.297 124.036L241.542 198.281L164.469 275.359L90.2188 201.109Z" fill="white"/>
</mask>
<g mask="url(#mask7_8218_438)">
<path d="M161.656 202.75C145.953 195.703 124.323 192.266 95.8125 200.37C95.8125 200.37 129.969 186.167 162.245 199.589C162.781 197.224 163.458 195.182 164.109 193.672C165.984 189.339 166.786 184.115 167.01 178.958C136.411 167.568 90.2708 201.078 90.2708 201.078C90.2708 201.078 118.797 211.526 129.734 227.547C136.573 237.563 162.13 260.912 184.385 231.927C162.604 229.958 159.995 214.151 161.656 202.75Z" fill="#27963C"/>
</g>
</g>
</g>
</g>
<path d="M107.546 280.447C103.765 280.447 100.515 279.614 97.7959 277.947C95.0876 276.27 93.0095 273.999 91.5668 271.135C90.1189 268.275 89.4001 265.051 89.4001 261.468C89.4001 258.083 90.098 254.853 91.5043 251.781C92.9053 248.713 95.0043 246.218 97.7959 244.301C100.588 242.374 103.952 241.406 107.9 241.406C109.442 241.406 111.176 241.645 113.108 242.114C115.051 242.572 116.697 243.208 118.046 244.01H118.088L117.879 241.781H121.983V254.197H118.525C118.067 251.322 116.947 249.124 115.171 247.593C113.39 246.067 111.202 245.281 108.608 245.239C106.259 245.239 104.265 245.947 102.629 247.364C100.989 248.77 99.7595 250.624 98.9418 252.926C98.1345 255.234 97.7334 257.718 97.7334 260.385C97.7334 265.124 98.7022 268.947 100.65 271.864C102.608 274.781 105.348 276.239 108.879 276.239C110.004 276.239 111.301 276.114 112.775 275.864C114.259 275.614 115.468 275.26 116.4 274.801V269.843C116.4 267.843 116.468 266.239 116.608 265.031C115.676 265.103 114.801 265.135 113.983 265.135L112.608 265.197V261.093H126.796V264.614C125.905 264.645 125.213 264.77 124.713 264.989C124.213 265.197 123.838 265.635 123.588 266.301C123.338 266.958 123.213 267.937 123.213 269.239V277.781H121.942C121.119 277.781 120.306 277.874 119.504 278.051C118.713 278.234 117.692 278.52 116.442 278.906C114.593 279.437 113.046 279.822 111.796 280.072C110.556 280.322 109.14 280.447 107.546 280.447Z" fill="#EAECE9"/>
<path d="M124.334 276.135C125.677 276.135 126.542 275.76 126.917 275.01C127.292 274.26 127.479 273.051 127.479 271.385V262.426C127.479 260.817 127.547 259.301 127.688 257.885L123.959 258.051V253.989C126.193 253.989 128.005 253.833 129.396 253.51C130.782 253.192 131.709 252.817 132.167 252.385H134.792C134.86 252.926 134.907 253.63 134.938 254.489C134.979 255.338 135 256.171 135 256.989H135.104C137.521 253.713 140.084 252.072 142.792 252.072C144.136 252.072 145.24 252.447 146.104 253.197C146.979 253.947 147.417 255.051 147.417 256.51C147.417 257.426 147.11 258.281 146.5 259.072C145.901 259.854 145 260.239 143.792 260.239C142.901 260.239 142.11 260.01 141.417 259.551C140.735 259.083 140.339 258.275 140.229 257.135C139.229 257.135 138.198 257.718 137.146 258.885C136.104 260.041 135.407 261.187 135.063 262.322V271.01C135.063 272.718 134.985 274.281 134.834 275.697C135.969 275.588 137.13 275.531 138.313 275.531V279.593H124.334V276.135Z" fill="#EAECE9"/>
<path d="M157.03 280.447C154.431 280.447 152.134 279.869 150.134 278.718C148.145 277.567 146.598 275.921 145.489 273.781C144.39 271.645 143.843 269.156 143.843 266.322C143.843 263.822 144.405 261.484 145.53 259.301C146.655 257.109 148.223 255.359 150.239 254.051C152.265 252.734 154.577 252.072 157.176 252.072C160.634 252.072 163.509 253.088 165.801 255.114C168.093 257.145 169.218 260.52 169.176 265.239L151.697 265.572C151.697 268.697 152.285 271.171 153.468 272.989C154.66 274.796 156.577 275.697 159.218 275.697C160.452 275.697 161.78 275.38 163.197 274.739C164.624 274.104 165.91 273.088 167.051 271.697L169.447 273.947C166.431 278.281 162.291 280.447 157.03 280.447ZM161.822 261.843C161.707 257.817 160.249 255.801 157.447 255.801C155.916 255.801 154.702 256.343 153.801 257.426C152.895 258.51 152.301 259.984 152.009 261.843H161.822Z" fill="#EAECE9"/>
<path d="M180.174 280.447C177.575 280.447 175.278 279.869 173.278 278.718C171.289 277.567 169.742 275.921 168.632 273.781C167.533 271.645 166.987 269.156 166.987 266.322C166.987 263.822 167.549 261.484 168.674 259.301C169.799 257.109 171.367 255.359 173.382 254.051C175.408 252.734 177.721 252.072 180.32 252.072C183.778 252.072 186.653 253.088 188.945 255.114C191.237 257.145 192.362 260.52 192.32 265.239L174.841 265.572C174.841 268.697 175.429 271.171 176.612 272.989C177.804 274.796 179.721 275.697 182.362 275.697C183.596 275.697 184.924 275.38 186.341 274.739C187.768 274.104 189.054 273.088 190.195 271.697L192.591 273.947C189.575 278.281 185.435 280.447 180.174 280.447ZM184.966 261.843C184.851 257.817 183.393 255.801 180.591 255.801C179.06 255.801 177.846 256.343 176.945 257.426C176.039 258.51 175.445 259.984 175.153 261.843H184.966Z" fill="#EAECE9"/>
<path d="M190.672 276.135C192.016 276.135 192.88 275.76 193.255 275.01C193.63 274.26 193.818 273.051 193.818 271.385V262.426C193.818 260.817 193.886 259.301 194.026 257.885L190.297 258.051V253.989C192.531 253.989 194.344 253.833 195.735 253.51C197.12 253.192 198.047 252.817 198.505 252.385H201.13C201.13 252.468 201.198 253.359 201.339 255.051H201.443C202.469 254.249 203.74 253.551 205.255 252.968C206.766 252.374 208.057 252.072 209.13 252.072C212.365 252.072 214.672 252.999 216.047 254.843C217.432 256.692 218.13 259.697 218.13 263.864V271.01C218.13 272.718 218.057 274.281 217.922 275.697C219.099 275.588 220.261 275.531 221.401 275.531V279.593H207.422V276.135C208.766 276.135 209.636 275.76 210.026 275.01C210.412 274.26 210.61 273.051 210.61 271.385L210.568 263.801C210.568 261.458 210.235 259.734 209.568 258.635C208.912 257.541 207.802 256.989 206.235 256.989C205.386 256.989 204.516 257.176 203.63 257.551C202.74 257.916 201.995 258.38 201.401 258.947V271.01C201.401 272.718 201.323 274.281 201.172 275.697C202.307 275.588 203.469 275.531 204.651 275.531V279.593H190.672V276.135Z" fill="#EAECE9"/>
<path d="M228 276.072C228.958 276.031 229.687 275.916 230.187 275.718C230.687 275.525 231.073 275.109 231.354 274.468C231.646 273.833 231.791 272.817 231.791 271.426V251.01C231.791 249.01 231.859 247.406 232 246.197L228 246.364V242.26H243.312V245.781C242.354 245.822 241.625 245.942 241.125 246.135C240.625 246.333 240.229 246.749 239.937 247.385C239.656 248.025 239.521 249.041 239.521 250.426V270.843C239.521 272.76 239.448 274.322 239.312 275.531H246.458C248.583 275.505 250.229 274.755 251.396 273.281C252.573 271.796 253.166 269.635 253.166 266.801H256.75L256.416 279.593H228V276.072Z" fill="#EAECE9"/>
<path d="M266.83 280.447C264.231 280.447 261.934 279.869 259.934 278.718C257.945 277.567 256.398 275.921 255.288 273.781C254.189 271.645 253.642 269.156 253.642 266.322C253.642 263.822 254.205 261.484 255.33 259.301C256.455 257.109 258.023 255.359 260.038 254.051C262.064 252.734 264.377 252.072 266.976 252.072C270.434 252.072 273.309 253.088 275.601 255.114C277.892 257.145 279.017 260.52 278.976 265.239L261.497 265.572C261.497 268.697 262.085 271.171 263.267 272.989C264.46 274.796 266.377 275.697 269.017 275.697C270.252 275.697 271.58 275.38 272.997 274.739C274.424 274.104 275.71 273.088 276.851 271.697L279.247 273.947C276.231 278.281 272.09 280.447 266.83 280.447ZM271.622 261.843C271.507 257.817 270.049 255.801 267.247 255.801C265.715 255.801 264.502 256.343 263.601 257.426C262.695 258.51 262.101 259.984 261.809 261.843H271.622Z" fill="#EAECE9"/>
<path d="M283.995 280.447C281.755 280.447 279.984 279.781 278.682 278.447C277.39 277.114 276.745 275.416 276.745 273.343C276.745 270.218 278.203 267.854 281.12 266.239C284.036 264.614 287.536 263.713 291.62 263.531V260.76C291.62 257.525 290.411 255.906 287.995 255.906C286.422 255.906 285.146 256.406 284.161 257.406C284.578 257.906 284.786 258.583 284.786 259.426C284.786 260.291 284.495 261.062 283.911 261.739C283.328 262.406 282.463 262.739 281.328 262.739C280.255 262.739 279.416 262.395 278.807 261.697C278.208 261.005 277.911 260.145 277.911 259.114C277.911 257.729 278.401 256.505 279.39 255.447C280.39 254.38 281.75 253.551 283.474 252.968C285.208 252.374 287.104 252.072 289.161 252.072C295.745 252.072 299.036 255.468 299.036 262.26L298.974 271.01C298.974 272.718 298.901 274.281 298.765 275.697C299.943 275.588 301.099 275.531 302.224 275.531V279.593H292.161C292.088 279.135 292.015 278.317 291.932 277.135H291.89C289.724 279.343 287.088 280.447 283.995 280.447ZM287.349 275.218C288.943 275.218 290.349 274.583 291.557 273.301V267.322C289.458 267.546 287.724 268.083 286.349 268.926C284.984 269.775 284.307 270.926 284.307 272.385C284.307 273.359 284.599 274.072 285.182 274.531C285.776 274.989 286.5 275.218 287.349 275.218Z" fill="#EAECE9"/>
<path d="M299.829 276.135C301.173 276.135 302.043 275.76 302.434 275.01C302.835 274.26 303.038 273.051 303.038 271.385V257.301L299.142 257.343V252.926H303.038V251.385C303.038 247.218 303.939 244.171 305.746 242.239C307.564 240.296 310.142 239.322 313.475 239.322C315.793 239.322 317.501 239.791 318.6 240.718C319.71 241.635 320.267 242.734 320.267 244.01C320.267 245.01 319.96 245.859 319.35 246.551C318.751 247.249 317.918 247.593 316.85 247.593C315.85 247.593 315.069 247.312 314.517 246.739C313.975 246.171 313.704 245.442 313.704 244.551C313.704 244.093 313.736 243.739 313.809 243.489C313.517 243.197 313.105 243.051 312.579 243.051C311.163 243.093 310.454 244.197 310.454 246.364V252.926H316.413V257.031L310.496 257.197L310.559 270.906C310.559 272.687 310.48 274.281 310.329 275.697C311.506 275.588 312.756 275.531 314.079 275.531V279.593H299.829V276.135Z" fill="#EAECE9"/>
<path d="M340.314 280.447C336.715 280.447 333.528 279.614 330.752 277.947C327.986 276.27 325.84 273.984 324.314 271.093C322.783 268.192 322.023 264.984 322.023 261.468C322.023 258.083 322.736 254.853 324.169 251.781C325.611 248.713 327.736 246.218 330.544 244.301C333.346 242.374 336.731 241.406 340.689 241.406C342.106 241.406 343.637 241.645 345.294 242.114C346.945 242.572 348.465 243.208 349.856 244.01H349.898L349.689 241.781H353.794V254.197H350.335C349.377 248.296 346.387 245.312 341.377 245.239C338.986 245.239 336.965 245.947 335.314 247.364C333.658 248.77 332.424 250.624 331.606 252.926C330.799 255.234 330.398 257.718 330.398 260.385C330.398 263.458 330.84 266.187 331.731 268.572C332.616 270.947 333.898 272.801 335.564 274.135C337.231 275.468 339.236 276.135 341.585 276.135C343.861 276.135 346.09 275.551 348.273 274.385C350.465 273.208 352.304 271.603 353.794 269.572L356.356 271.906C354.007 275.145 351.429 277.379 348.627 278.614C345.82 279.833 343.049 280.447 340.314 280.447Z" fill="#EAECE9"/>
<path d="M360.145 280.447C357.905 280.447 356.134 279.781 354.832 278.447C353.541 277.114 352.895 275.416 352.895 273.343C352.895 270.218 354.353 267.854 357.27 266.239C360.187 264.614 363.687 263.713 367.77 263.531V260.76C367.77 257.525 366.562 255.906 364.145 255.906C362.572 255.906 361.296 256.406 360.312 257.406C360.728 257.906 360.937 258.583 360.937 259.426C360.937 260.291 360.645 261.062 360.062 261.739C359.478 262.406 358.614 262.739 357.478 262.739C356.405 262.739 355.567 262.395 354.957 261.697C354.358 261.005 354.062 260.145 354.062 259.114C354.062 257.729 354.551 256.505 355.541 255.447C356.541 254.38 357.9 253.551 359.624 252.968C361.358 252.374 363.254 252.072 365.312 252.072C371.895 252.072 375.187 255.468 375.187 262.26L375.124 271.01C375.124 272.718 375.051 274.281 374.916 275.697C376.093 275.588 377.249 275.531 378.374 275.531V279.593H368.312C368.239 279.135 368.166 278.317 368.082 277.135H368.041C365.874 279.343 363.239 280.447 360.145 280.447ZM363.499 275.218C365.093 275.218 366.499 274.583 367.707 273.301V267.322C365.608 267.546 363.874 268.083 362.499 268.926C361.134 269.775 360.457 270.926 360.457 272.385C360.457 273.359 360.749 274.072 361.332 274.531C361.926 274.989 362.65 275.218 363.499 275.218Z" fill="#EAECE9"/>
<path d="M375.98 276.135C377.323 276.135 378.193 275.76 378.584 275.01C378.985 274.26 379.188 273.051 379.188 271.385V257.301L375.292 257.343V252.926H379.188V251.385C379.188 247.218 380.089 244.171 381.896 242.239C383.714 240.296 386.292 239.322 389.625 239.322C391.943 239.322 393.651 239.791 394.75 240.718C395.86 241.635 396.417 242.734 396.417 244.01C396.417 245.01 396.11 245.859 395.5 246.551C394.901 247.249 394.068 247.593 393 247.593C392 247.593 391.219 247.312 390.667 246.739C390.125 246.171 389.855 245.442 389.855 244.551C389.855 244.093 389.886 243.739 389.959 243.489C389.667 243.197 389.256 243.051 388.73 243.051C387.313 243.093 386.605 244.197 386.605 246.364V252.926H392.563V257.031L386.646 257.197L386.709 270.906C386.709 272.687 386.631 274.281 386.48 275.697C387.657 275.588 388.907 275.531 390.23 275.531V279.593H375.98V276.135Z" fill="#EAECE9"/>
<path d="M402.653 280.447C400.054 280.447 397.757 279.869 395.757 278.718C393.767 277.567 392.22 275.921 391.111 273.781C390.012 271.645 389.465 269.156 389.465 266.322C389.465 263.822 390.028 261.484 391.153 259.301C392.278 257.109 393.845 255.359 395.861 254.051C397.887 252.734 400.199 252.072 402.798 252.072C406.257 252.072 409.132 253.088 411.423 255.114C413.715 257.145 414.84 260.52 414.798 265.239L397.319 265.572C397.319 268.697 397.908 271.171 399.09 272.989C400.283 274.796 402.199 275.697 404.84 275.697C406.074 275.697 407.403 275.38 408.819 274.739C410.246 274.104 411.533 273.088 412.673 271.697L415.069 273.947C412.054 278.281 407.913 280.447 402.653 280.447ZM407.444 261.843C407.33 257.817 405.871 255.801 403.069 255.801C401.538 255.801 400.324 256.343 399.423 257.426C398.517 258.51 397.923 259.984 397.632 261.843H407.444ZM397.798 247.281L402.173 239.801C402.559 239.208 403.038 238.739 403.611 238.406C404.179 238.062 404.762 237.885 405.361 237.885C405.996 237.885 406.601 238.104 407.173 238.531C407.809 239.13 408.132 239.859 408.132 240.718C408.132 241.249 407.996 241.796 407.736 242.364C407.47 242.937 407.121 243.416 406.694 243.801L400.236 249.468L397.798 247.281Z" fill="#EAECE9"/>
<path d="M417.259 280.447C416.119 280.447 415.176 280.051 414.426 279.26C413.687 278.458 413.322 277.463 413.322 276.281C413.322 275.145 413.707 274.171 414.489 273.364C415.265 272.546 416.176 272.135 417.218 272.135C418.312 272.135 419.223 272.546 419.947 273.364C420.681 274.171 421.051 275.145 421.051 276.281C421.051 277.463 420.702 278.458 420.009 279.26C419.312 280.051 418.395 280.447 417.259 280.447Z" fill="#F29E4C"/>
<path d="M154.804 322.763H153.409V310.825H160.054V312.054H154.804V316.429H159.742V317.638H154.804V322.763Z" fill="#F29E4C"/>
<path d="M170.005 310.825C170.974 310.825 171.781 310.95 172.422 311.2C173.073 311.44 173.552 311.804 173.86 312.304C174.177 312.804 174.339 313.44 174.339 314.2C174.339 314.825 174.219 315.356 173.985 315.783C173.761 316.2 173.464 316.544 173.089 316.804C172.724 317.07 172.339 317.273 171.922 317.408L175.193 322.763H173.568L170.651 317.783H168.172V322.763H166.776V310.825H170.005ZM169.922 312.033H168.172V316.617H170.068C171.037 316.617 171.755 316.424 172.214 316.033C172.672 315.632 172.901 315.044 172.901 314.263C172.901 313.46 172.656 312.888 172.172 312.554C171.683 312.21 170.933 312.033 169.922 312.033Z" fill="#F29E4C"/>
<path d="M188.478 322.763H181.832V310.825H188.478V312.054H183.228V315.908H188.186V317.117H183.228V321.533H188.478V322.763Z" fill="#F29E4C"/>
<path d="M202.59 319.596C202.59 320.304 202.413 320.908 202.069 321.408C201.72 321.898 201.225 322.273 200.59 322.533C199.965 322.794 199.225 322.929 198.381 322.929C197.923 322.929 197.491 322.908 197.09 322.867C196.684 322.825 196.319 322.763 195.986 322.679C195.652 322.596 195.35 322.492 195.09 322.367V321.033C195.491 321.216 195.986 321.377 196.569 321.513C197.163 321.653 197.782 321.721 198.423 321.721C199.017 321.721 199.527 321.648 199.944 321.492C200.361 321.325 200.673 321.096 200.881 320.804C201.1 320.502 201.215 320.132 201.215 319.7C201.215 319.299 201.121 318.961 200.944 318.679C200.762 318.403 200.465 318.153 200.048 317.929C199.631 317.711 199.059 317.466 198.34 317.2C197.84 317.023 197.392 316.825 197.006 316.617C196.616 316.398 196.288 316.153 196.027 315.888C195.777 315.612 195.579 315.299 195.444 314.95C195.319 314.591 195.256 314.174 195.256 313.7C195.256 313.075 195.413 312.533 195.736 312.075C196.053 311.617 196.496 311.273 197.069 311.033C197.652 310.783 198.309 310.658 199.048 310.658C199.684 310.658 200.277 310.721 200.819 310.846C201.361 310.961 201.861 311.117 202.319 311.325L201.881 312.513C201.449 312.336 200.991 312.19 200.506 312.075C200.032 311.95 199.538 311.888 199.027 311.888C198.512 311.888 198.079 311.966 197.736 312.117C197.387 312.273 197.116 312.487 196.923 312.763C196.741 313.028 196.652 313.346 196.652 313.721C196.652 314.138 196.736 314.487 196.902 314.763C197.079 315.044 197.366 315.294 197.756 315.513C198.142 315.721 198.663 315.945 199.319 316.179C200.012 316.429 200.6 316.7 201.09 316.992C201.59 317.273 201.965 317.617 202.215 318.033C202.465 318.44 202.59 318.961 202.59 319.596Z" fill="#F29E4C"/>
<path d="M218.808 322.763H217.433V317.138H211.162V322.763H209.767V310.825H211.162V315.908H217.433V310.825H218.808V322.763Z" fill="#F29E4C"/>
<path d="M228.183 320.825L228.287 321.013C228.188 321.403 228.063 321.825 227.912 322.283C227.756 322.731 227.589 323.179 227.412 323.638C227.246 324.096 227.068 324.518 226.891 324.908H225.891C226.001 324.476 226.105 324.018 226.204 323.533C226.313 323.059 226.412 322.591 226.496 322.117C226.589 321.648 226.667 321.216 226.725 320.825H228.183Z" fill="#F29E4C"/>
<path d="M255.339 316.783C255.339 317.7 255.219 318.544 254.984 319.304C254.745 320.054 254.401 320.7 253.943 321.242C253.484 321.783 252.911 322.2 252.234 322.492C251.552 322.783 250.76 322.929 249.859 322.929C248.943 322.929 248.135 322.783 247.443 322.492C246.76 322.2 246.193 321.783 245.734 321.242C245.276 320.69 244.932 320.033 244.714 319.283C244.49 318.523 244.38 317.679 244.38 316.763C244.38 315.544 244.578 314.471 244.984 313.554C245.385 312.638 245.995 311.924 246.818 311.408C247.635 310.898 248.661 310.638 249.901 310.638C251.078 310.638 252.073 310.898 252.88 311.408C253.682 311.908 254.297 312.617 254.714 313.533C255.13 314.45 255.339 315.533 255.339 316.783ZM245.839 316.783C245.839 317.799 245.984 318.674 246.276 319.408C246.568 320.148 247.005 320.716 247.589 321.117C248.182 321.523 248.943 321.721 249.859 321.721C250.786 321.721 251.547 321.523 252.13 321.117C252.724 320.716 253.161 320.148 253.443 319.408C253.734 318.674 253.88 317.799 253.88 316.783C253.88 315.242 253.552 314.044 252.901 313.179C252.26 312.304 251.26 311.867 249.901 311.867C248.969 311.867 248.203 312.07 247.609 312.471C247.01 312.862 246.568 313.424 246.276 314.158C245.984 314.898 245.839 315.773 245.839 316.783Z" fill="#F29E4C"/>
<path d="M265.953 310.825C266.922 310.825 267.729 310.95 268.369 311.2C269.02 311.44 269.5 311.804 269.807 312.304C270.125 312.804 270.286 313.44 270.286 314.2C270.286 314.825 270.166 315.356 269.932 315.783C269.708 316.2 269.411 316.544 269.036 316.804C268.672 317.07 268.286 317.273 267.869 317.408L271.14 322.763H269.515L266.599 317.783H264.119V322.763H262.724V310.825H265.953ZM265.869 312.033H264.119V316.617H266.015C266.984 316.617 267.703 316.424 268.161 316.033C268.619 315.632 268.849 315.044 268.849 314.263C268.849 313.46 268.604 312.888 268.119 312.554C267.63 312.21 266.88 312.033 265.869 312.033Z" fill="#F29E4C"/>
<path d="M282.884 316.513H287.05V322.304C286.425 322.513 285.78 322.669 285.113 322.763C284.457 322.872 283.722 322.929 282.905 322.929C281.665 322.929 280.618 322.69 279.759 322.2C278.91 321.7 278.264 320.992 277.821 320.075C277.389 319.158 277.175 318.07 277.175 316.804C277.175 315.57 277.415 314.492 277.905 313.575C278.389 312.648 279.092 311.929 280.009 311.429C280.936 310.919 282.05 310.658 283.342 310.658C284.009 310.658 284.639 310.721 285.238 310.846C285.832 310.971 286.384 311.148 286.884 311.367L286.363 312.575C285.915 312.382 285.431 312.221 284.905 312.096C284.373 311.961 283.826 311.888 283.259 311.888C282.285 311.888 281.451 312.091 280.759 312.492C280.061 312.898 279.53 313.466 279.155 314.2C278.79 314.924 278.613 315.794 278.613 316.804C278.613 317.794 278.769 318.658 279.092 319.408C279.41 320.148 279.91 320.716 280.592 321.117C281.269 321.523 282.155 321.721 283.238 321.721C283.764 321.721 284.222 321.695 284.613 321.638C284.998 321.57 285.352 321.492 285.675 321.408V317.763H282.884V316.513Z" fill="#F29E4C"/>
<path d="M302.15 322.763L300.691 318.971H295.9L294.441 322.763H293.046L297.712 310.783H298.962L303.587 322.763H302.15ZM300.275 317.742L298.879 313.992C298.848 313.898 298.796 313.737 298.712 313.513C298.639 313.278 298.566 313.044 298.483 312.804C298.41 312.57 298.358 312.377 298.316 312.221C298.259 312.445 298.197 312.669 298.129 312.888C298.072 313.112 298.009 313.32 297.941 313.513C297.884 313.695 297.837 313.856 297.796 313.992L296.379 317.742H300.275Z" fill="#F29E4C"/>
<path d="M319.313 322.763H317.709L311.209 312.742H311.146C311.156 313.007 311.172 313.315 311.188 313.658C311.214 313.992 311.235 314.356 311.25 314.742C311.261 315.117 311.271 315.507 311.271 315.908V322.763H309.979V310.825H311.584L318.063 320.825H318.104C318.104 320.632 318.089 320.362 318.063 320.013C318.047 319.669 318.031 319.294 318.021 318.888C318.005 318.471 318 318.091 318 317.742V310.825H319.313V322.763Z" fill="#F29E4C"/>
<path d="M327.303 322.763V310.825H328.699V322.763H327.303Z" fill="#F29E4C"/>
<path d="M341.819 311.888C341.163 311.888 340.574 312.002 340.048 312.221C339.517 312.445 339.069 312.773 338.694 313.2C338.329 313.632 338.053 314.153 337.861 314.763C337.663 315.362 337.569 316.033 337.569 316.783C337.569 317.783 337.72 318.658 338.027 319.408C338.345 320.148 338.819 320.716 339.444 321.117C340.069 321.507 340.845 321.7 341.777 321.7C342.303 321.7 342.803 321.658 343.277 321.575C343.746 321.492 344.204 321.382 344.652 321.242V322.45C344.22 322.606 343.762 322.721 343.277 322.804C342.803 322.888 342.241 322.929 341.59 322.929C340.366 322.929 339.345 322.679 338.527 322.179C337.72 321.669 337.116 320.95 336.715 320.033C336.309 319.117 336.111 318.033 336.111 316.783C336.111 315.882 336.236 315.054 336.486 314.304C336.736 313.554 337.1 312.908 337.59 312.367C338.074 311.825 338.673 311.408 339.381 311.117C340.1 310.815 340.923 310.658 341.84 310.658C342.434 310.658 343.012 310.721 343.569 310.846C344.137 310.961 344.642 311.132 345.09 311.367L344.548 312.533C344.158 312.356 343.736 312.2 343.277 312.075C342.829 311.95 342.345 311.888 341.819 311.888Z" fill="#F29E4C"/>
<path d="M364.527 310.638C365.11 310.638 365.616 310.742 366.048 310.95C366.475 311.158 366.803 311.46 367.027 311.846C367.261 312.221 367.381 312.674 367.381 313.2C367.381 313.908 367.152 314.513 366.694 315.013C366.235 315.502 365.652 315.945 364.944 316.346L368.256 319.554C368.548 319.21 368.788 318.804 368.985 318.346C369.178 317.888 369.34 317.388 369.465 316.846H370.84C370.673 317.57 370.449 318.237 370.173 318.846C369.892 319.445 369.548 319.971 369.131 320.429L371.527 322.763H369.694L368.215 321.325C367.866 321.648 367.491 321.929 367.09 322.179C366.683 322.419 366.241 322.606 365.756 322.742C365.267 322.867 364.715 322.929 364.09 322.929C363.324 322.929 362.663 322.804 362.11 322.554C361.553 322.304 361.116 321.94 360.798 321.45C360.491 320.966 360.34 320.377 360.34 319.679C360.34 319.096 360.444 318.606 360.652 318.2C360.871 317.783 361.178 317.419 361.569 317.096C361.954 316.763 362.428 316.445 362.985 316.138C362.72 315.862 362.47 315.575 362.235 315.283C362.011 314.992 361.829 314.679 361.694 314.346C361.553 314.013 361.485 313.648 361.485 313.242C361.485 312.7 361.61 312.237 361.86 311.846C362.11 311.46 362.454 311.158 362.902 310.95C363.36 310.742 363.902 310.638 364.527 310.638ZM363.798 317.013C363.366 317.252 362.996 317.492 362.694 317.742C362.402 317.981 362.173 318.252 362.006 318.554C361.85 318.846 361.777 319.2 361.777 319.617C361.777 320.257 361.985 320.773 362.402 321.158C362.829 321.533 363.407 321.721 364.131 321.721C364.866 321.721 365.491 321.606 366.006 321.367C366.532 321.117 366.975 320.82 367.34 320.471L363.798 317.013ZM364.485 311.763C363.985 311.763 363.579 311.898 363.277 312.158C362.97 312.408 362.819 312.773 362.819 313.242C362.819 313.648 362.928 314.023 363.152 314.367C363.371 314.716 363.694 315.106 364.11 315.533C364.788 315.158 365.282 314.799 365.59 314.45C365.892 314.106 366.048 313.69 366.048 313.2C366.048 312.773 365.902 312.424 365.61 312.158C365.329 311.898 364.954 311.763 364.485 311.763Z" fill="#F29E4C"/>
<path d="M228.065 345.763V333.825H229.461V344.513H234.752V345.763H228.065Z" fill="#F29E4C"/>
<path d="M251.885 339.783C251.885 340.7 251.765 341.544 251.53 342.304C251.291 343.054 250.947 343.7 250.489 344.242C250.03 344.783 249.458 345.2 248.78 345.492C248.098 345.783 247.306 345.929 246.405 345.929C245.489 345.929 244.681 345.783 243.989 345.492C243.306 345.2 242.739 344.783 242.28 344.242C241.822 343.69 241.478 343.033 241.26 342.283C241.036 341.523 240.926 340.679 240.926 339.763C240.926 338.544 241.124 337.471 241.53 336.554C241.931 335.638 242.541 334.924 243.364 334.408C244.181 333.898 245.208 333.638 246.447 333.638C247.624 333.638 248.619 333.898 249.426 334.408C250.228 334.908 250.843 335.617 251.26 336.533C251.676 337.45 251.885 338.533 251.885 339.783ZM242.385 339.783C242.385 340.799 242.53 341.674 242.822 342.408C243.114 343.148 243.551 343.716 244.135 344.117C244.728 344.523 245.489 344.721 246.405 344.721C247.333 344.721 248.093 344.523 248.676 344.117C249.27 343.716 249.708 343.148 249.989 342.408C250.28 341.674 250.426 340.799 250.426 339.783C250.426 338.242 250.098 337.044 249.447 336.179C248.806 335.304 247.806 334.867 246.447 334.867C245.515 334.867 244.749 335.07 244.155 335.471C243.556 335.862 243.114 336.424 242.822 337.158C242.53 337.898 242.385 338.773 242.385 339.783Z" fill="#F29E4C"/>
<path d="M264.374 334.888C263.718 334.888 263.129 335.002 262.603 335.221C262.072 335.445 261.624 335.773 261.249 336.2C260.884 336.632 260.608 337.153 260.415 337.763C260.218 338.362 260.124 339.033 260.124 339.783C260.124 340.783 260.275 341.658 260.582 342.408C260.9 343.148 261.374 343.716 261.999 344.117C262.624 344.507 263.4 344.7 264.332 344.7C264.858 344.7 265.358 344.658 265.832 344.575C266.301 344.492 266.759 344.382 267.207 344.242V345.45C266.775 345.606 266.317 345.721 265.832 345.804C265.358 345.888 264.796 345.929 264.145 345.929C262.921 345.929 261.9 345.679 261.082 345.179C260.275 344.669 259.671 343.95 259.27 343.033C258.863 342.117 258.665 341.033 258.665 339.783C258.665 338.882 258.79 338.054 259.04 337.304C259.29 336.554 259.655 335.908 260.145 335.367C260.629 334.825 261.228 334.408 261.936 334.117C262.655 333.815 263.478 333.658 264.395 333.658C264.988 333.658 265.567 333.721 266.124 333.846C266.692 333.961 267.197 334.132 267.645 334.367L267.103 335.533C266.712 335.356 266.29 335.2 265.832 335.075C265.384 334.95 264.9 334.888 264.374 334.888Z" fill="#F29E4C"/>
<path d="M282.017 345.763L280.558 341.971H275.767L274.308 345.763H272.913L277.579 333.783H278.829L283.454 345.763H282.017ZM280.142 340.742L278.746 336.992C278.715 336.898 278.663 336.737 278.579 336.513C278.506 336.278 278.433 336.044 278.35 335.804C278.277 335.57 278.225 335.377 278.183 335.221C278.126 335.445 278.064 335.669 277.996 335.888C277.939 336.112 277.876 336.32 277.808 336.513C277.751 336.695 277.704 336.856 277.663 336.992L276.246 340.742H280.142Z" fill="#F29E4C"/>
<path d="M289.846 345.763V333.825H291.242V344.513H296.534V345.763H289.846Z" fill="#F29E4C"/>
</svg>
