<svg width="1800" height="65" viewBox="0 0 1800 65" fill="none" xmlns="http://www.w3.org/2000/svg">
<mask id="mask0_8258_2387" style="mask-type:luminance" maskUnits="userSpaceOnUse" x="0" y="0" width="1800" height="65">
<path d="M0 0H1800V65H0V0Z" fill="white"/>
</mask>
<g mask="url(#mask0_8258_2387)">
<path d="M1646 33.1695C1612.04 35.3563 1573.98 35.8292 1536.77 35.8499C1489.64 35.8775 1442.15 35.2243 1397.23 33.1764C1266.63 27.2256 1171.18 10.2488 1040.25 4.44478C959.313 0.855175 868.724 1.99884 793.378 7.55071C736.579 11.7392 689.743 18.1826 639.068 23.7591C588.387 29.3346 529.954 34.2373 466.116 34.4619C403.13 34.6835 343.248 30.2744 294.393 24.5619C245.545 18.8524 205.108 11.824 159.742 5.55003C143.564 3.31195 125.732 1.08962 103.842 0.365594C63.4809 -0.97509 26.6767 3.06371 0.213379 7.95558V65.0376H1800V18.8327C1783.4 19.6356 1767.37 20.8571 1753.19 22.2618C1717.07 25.8405 1686.05 30.5866 1646 33.1695Z" fill="#12260F"/>
</g>
</svg>
