<svg width="1440" height="96" viewBox="0 0 1440 96" fill="none" xmlns="http://www.w3.org/2000/svg">
<mask id="mask0_8254_2718" style="mask-type:luminance" maskUnits="userSpaceOnUse" x="0" y="3" width="247" height="93">
<path d="M0 3.73975H246.945V95.3491H0V3.73975Z" fill="white"/>
</mask>
<g mask="url(#mask0_8254_2718)">
<path d="M214.684 47.9481C207.499 44.8856 199.446 44.2241 191.574 44.1981C181.604 44.1616 171.552 45.0731 162.048 47.9377C134.418 56.2606 114.219 80.0002 86.5173 88.1147C69.3896 93.1356 50.2185 91.5366 34.2773 83.771C22.2638 77.9168 12.3541 68.9064 1.62598 61.1043C-9.09668 53.3075 -21.4563 46.4533 -34.9695 46.1408C-48.2959 45.8283 -60.9631 51.995 -71.3013 59.9845C-81.6394 67.9689 -90.1923 77.797 -99.7943 86.5679C-103.217 89.6981 -106.99 92.8075 -111.621 93.8179C-120.157 95.6929 -127.947 90.047 -133.55 83.2033V3.38037H247.275V67.995C243.759 66.8752 240.37 65.1668 237.365 63.1981C229.724 58.1929 223.16 51.5575 214.684 47.9481Z" fill="#EAECE9"/>
</g>
<mask id="mask1_8254_2718" style="mask-type:luminance" maskUnits="userSpaceOnUse" x="232" y="3" width="375" height="90">
<path d="M232.091 3.396H606.094V92.7293H232.091V3.396Z" fill="white"/>
</mask>
<g mask="url(#mask1_8254_2718)">
<path d="M574.002 47.1304C566.949 44.1304 559.045 43.4793 551.316 43.4533C541.527 43.4168 531.661 44.3127 522.328 47.1252C495.198 55.2918 475.373 78.5991 448.176 86.5679C431.361 91.495 412.542 89.9272 396.892 82.3022C385.098 76.5522 375.364 67.7085 364.839 60.0522C354.314 52.396 342.174 45.6668 328.914 45.3595C315.829 45.0522 303.393 51.1095 293.241 58.9481C283.095 66.7866 274.696 76.4377 265.27 85.047C261.914 88.1252 258.206 91.172 253.663 92.1668C245.275 94.0106 237.629 88.4637 232.135 81.745V3.38037H605.995V66.8127C602.545 65.7137 599.216 64.0366 596.272 62.1095C588.768 57.1929 582.325 50.6772 574.002 47.1304Z" fill="#EAECE9"/>
</g>
<mask id="mask2_8254_2718" style="mask-type:luminance" maskUnits="userSpaceOnUse" x="586" y="0" width="381" height="92">
<path d="M586.307 0.34375H966.868V91.3958H586.307V0.34375Z" fill="white"/>
</mask>
<g mask="url(#mask2_8254_2718)">
<path d="M934.607 44.5521C927.422 41.4896 919.369 40.8281 911.497 40.8021C901.522 40.7656 891.475 41.6771 881.971 44.5417C854.335 52.8646 834.137 76.6042 806.435 84.7188C789.307 89.7396 770.142 88.1406 754.2 80.375C742.181 74.5208 732.272 65.5104 721.549 57.7083C710.826 49.9115 698.461 43.0573 684.954 42.7448C671.627 42.4323 658.954 48.599 648.622 56.5885C638.284 64.5729 629.725 74.401 620.129 83.1719C616.707 86.3021 612.933 89.4115 608.302 90.4219C599.76 92.2969 591.971 86.651 586.373 79.8125V-0.015625H967.192V64.599C963.682 63.4792 960.287 61.7708 957.288 59.8021C949.647 54.7969 943.083 48.1615 934.607 44.5521Z" fill="#EAECE9"/>
</g>
<mask id="mask3_8254_2718" style="mask-type:luminance" maskUnits="userSpaceOnUse" x="776" y="3" width="375" height="90">
<path d="M776.766 3.396H1151V92.7293H776.766V3.396Z" fill="white"/>
</mask>
<g mask="url(#mask3_8254_2718)">
<path d="M1118.68 47.1304C1111.62 44.1304 1103.72 43.4793 1095.99 43.4533C1086.2 43.4168 1076.33 44.3127 1067 47.1252C1039.87 55.2918 1020.05 78.5991 992.851 86.5679C976.037 91.495 957.217 89.9272 941.567 82.3022C929.768 76.5522 920.039 67.7085 909.514 60.0522C898.984 52.396 886.85 45.6668 873.589 45.3595C860.504 45.0522 848.062 51.1095 837.916 58.9481C827.771 66.7866 819.372 76.4377 809.945 85.047C806.589 88.1252 802.881 91.172 798.333 92.1668C789.95 94.0106 782.304 88.4637 776.81 81.745V3.38037H1150.67V66.8127C1147.22 65.7137 1143.89 64.0366 1140.95 62.1095C1133.44 57.1929 1127 50.6772 1118.68 47.1304Z" fill="#EAECE9"/>
</g>
<mask id="mask4_8254_2718" style="mask-type:luminance" maskUnits="userSpaceOnUse" x="1105" y="0" width="335" height="91">
<path d="M1105.15 0H1440V90.0625H1105.15V0Z" fill="white"/>
</mask>
<g mask="url(#mask4_8254_2718)">
<path d="M1447.06 43.7344C1440.01 40.7344 1432.1 40.0833 1424.37 40.0573C1414.58 40.0208 1404.72 40.9167 1395.38 43.7292C1368.26 51.8958 1348.43 75.2031 1321.23 83.1719C1304.42 88.099 1285.6 86.5313 1269.95 78.9063C1258.15 73.1563 1248.43 64.3125 1237.9 56.6563C1227.37 49 1215.23 42.2708 1201.97 41.9635C1188.89 41.6563 1176.45 47.7135 1166.3 55.5521C1156.15 63.3906 1147.75 73.0417 1138.33 81.6563C1134.97 84.7292 1131.27 87.776 1126.72 88.7708C1118.34 90.6146 1110.69 85.0677 1105.19 78.3542V-0.015625H1479.05V63.4219C1475.61 62.3177 1472.27 60.6406 1469.33 58.7135C1461.82 53.7969 1455.38 47.2813 1447.06 43.7344Z" fill="#EAECE9"/>
</g>
</svg>
