<svg width="1800" height="65" viewBox="0 0 1800 65" fill="none" xmlns="http://www.w3.org/2000/svg">
<mask id="mask0_8258_2367" style="mask-type:luminance" maskUnits="userSpaceOnUse" x="0" y="0" width="1800" height="65">
<path d="M0 0H1800V65H0V0Z" fill="white"/>
</mask>
<g mask="url(#mask0_8258_2367)">
<path d="M1646 33.1692C1612.04 35.3561 1573.98 35.8289 1536.77 35.8496C1489.64 35.8772 1442.15 35.2241 1397.23 33.1761C1266.63 27.2253 1171.18 10.2486 1040.25 4.44453C959.313 0.854931 868.724 1.9986 793.378 7.55047C736.579 11.739 689.743 18.1824 639.068 23.7588C588.387 29.3344 529.954 34.2371 466.116 34.4617C403.13 34.6833 343.248 30.2741 294.393 24.5617C245.545 18.8522 205.108 11.8237 159.742 5.54979C143.564 3.3117 125.732 1.08938 103.842 0.36535C63.4809 -0.975334 26.6767 3.06346 0.213379 7.95533V65.0373H1800V18.8325C1783.4 19.6353 1767.37 20.8568 1753.19 22.2615C1717.07 25.8403 1686.05 30.5864 1646 33.1692Z" fill="#F8F9F8"/>
</g>
</svg>
